
<svg version="1.1" xmlns="http://www.w3.org/2000/svg" width="439" height="95">
<path d="M0 0 C4.08040279 2.21383555 7.17052074 4.58539508 8.515625 9.11328125 C10.3119214 17.71659561 8.26184125 25.81472357 4.2734375 33.49609375 C1.26533816 37.07329297 -2.19804593 39.61704843 -6.0390625 42.24609375 C-4.78222524 51.17286098 1.96493019 59.76468596 8.9609375 65.24609375 C11.24976203 66.59840434 13.57830946 67.83441139 15.93359375 69.06640625 C18.75517364 70.70825043 20.39004544 72.38992637 21.9609375 75.24609375 C21.8984375 77.93359375 21.8984375 77.93359375 20.9609375 80.24609375 C17.9609375 82.24609375 17.9609375 82.24609375 15.125 82.046875 C1.40410501 78.57430281 -9.92289973 66.50332307 -17.1484375 54.79296875 C-17.58929688 54.02726562 -17.58929688 54.02726562 -18.0390625 53.24609375 C-19.53331733 55.97746148 -20.35926519 58.28387111 -20.78515625 61.36328125 C-20.90052734 62.13542969 -21.01589844 62.90757813 -21.13476562 63.703125 C-21.3614713 65.30690571 -21.58545852 66.91107319 -21.80664062 68.515625 C-22.66324219 74.2042166 -23.83377449 79.04080574 -28.0390625 83.24609375 C-30.4765625 83.62109375 -30.4765625 83.62109375 -33.0390625 83.24609375 C-34.8515625 81.80859375 -34.8515625 81.80859375 -36.0390625 79.24609375 C-36.49597462 71.34804144 -35.12195686 63.93952861 -33.7265625 56.18359375 C-31.84700306 45.53910973 -30.2238424 34.91398814 -29.29174805 24.13647461 C-28.49429171 16.50132731 -26.35761552 9.42683311 -20.6875 3.9921875 C-19.93726563 3.56035156 -19.18703125 3.12851563 -18.4140625 2.68359375 C-17.28097656 2.00103516 -17.28097656 2.00103516 -16.125 1.3046875 C-11.08584733 -1.2526353 -5.37963483 -1.98902207 0 0 Z M-10.109375 12.57421875 C-10.78742188 13.2084375 -11.46546875 13.84265625 -12.1640625 14.49609375 C-12.84726562 15.12 -13.53046875 15.74390625 -14.234375 16.38671875 C-17.05635989 19.29421833 -18.01383334 20.75832991 -18.2265625 24.87109375 C-18.42434899 28.08307221 -18.42434899 28.08307221 -17.0390625 29.24609375 C-14.7094678 29.74850697 -14.7094678 29.74850697 -12.0390625 29.24609375 C-8.5918793 26.37344108 -5.89285011 23.34394005 -4.0390625 19.24609375 C-3.78806383 15.53715467 -3.78806383 15.53715467 -4.0390625 12.24609375 C-6.74658198 11.15337288 -7.59029561 10.95820556 -10.109375 12.57421875 Z " fill="#8EBAC4" transform="translate(372.0390625,4.75390625)"/>
<path d="M0 0 C3.35500149 2.02604372 5.7549236 4.86680834 8.29638672 7.81005859 C8.83714844 8.4165625 9.37791016 9.02306641 9.93505859 9.64794922 C11.25373648 11.13000312 12.55785824 12.62498722 13.85888672 14.12255859 C14.59107422 13.38392578 15.32326172 12.64529297 16.07763672 11.88427734 C18.4642093 9.5144644 20.87201378 7.19863837 23.35888672 4.93505859 C24.09107422 4.26087891 24.82326172 3.58669922 25.57763672 2.89208984 C29.00495417 0.23357134 31.63564971 -0.92637089 35.98388672 -0.75244141 C39.42941226 0.2961968 40.08883365 1.04322613 41.85888672 4.12255859 C42.23120117 7.00976562 42.23120117 7.00976562 42.22216797 10.38037109 C42.22313477 11.63422607 42.22410156 12.88808105 42.22509766 14.17993164 C42.2085551 15.53582458 42.19062131 16.89170117 42.17138672 18.24755859 C42.16578735 18.93097321 42.16018799 19.61438782 42.15441895 20.31851196 C42.07345585 30.16083919 41.7518844 39.9873028 41.10888672 49.81005859 C41.04741455 50.89496582 40.98594238 51.97987305 40.92260742 53.09765625 C40.84486084 54.09974121 40.76711426 55.10182617 40.68701172 56.13427734 C40.62416992 57.00528076 40.56132813 57.87628418 40.49658203 58.77368164 C39.6572214 61.86536947 38.36763795 63.17158977 35.85888672 65.12255859 C32.23972937 65.12255859 29.88991093 65.07034715 27.16235352 62.56298828 C25.32131237 59.11607926 25.48678444 55.88284283 25.56591797 52.07568359 C25.57016281 51.30448181 25.57440765 50.53328003 25.57878113 49.7387085 C25.59553289 47.28296544 25.63317733 44.82805231 25.67138672 42.37255859 C25.68643814 40.70460172 25.70012575 39.03663195 25.71240234 37.36865234 C25.74542478 33.28630282 25.79718188 29.20457127 25.85888672 25.12255859 C25.24174805 25.76708984 24.62460937 26.41162109 23.98876953 27.07568359 C21.10593274 29.84616773 19.11373362 30.01081254 15.24169922 30.29833984 C10.05129382 29.91544108 6.07793739 26.93525904 1.85888672 24.12255859 C1.87564453 25.35361328 1.89240234 26.58466797 1.90966797 27.85302734 C1.9062118 33.73658097 1.50295548 39.57156524 1.04638672 45.43505859 C0.97613281 46.505625 0.90587891 47.57619141 0.83349609 48.67919922 C0.71264648 50.22317383 0.71264648 50.22317383 0.58935547 51.79833984 C0.52127686 52.72557861 0.45319824 53.65281738 0.38305664 54.6081543 C-0.22256568 57.5132797 -1.11271066 58.97535516 -3.14111328 61.12255859 C-6.01611328 62.12255859 -6.01611328 62.12255859 -9.14111328 62.12255859 C-11.81298828 60.79833984 -11.81298828 60.79833984 -14.14111328 58.12255859 C-14.80172827 54.50660153 -14.65520945 50.97212501 -14.51611328 47.31005859 C-14.50193359 46.33746094 -14.48775391 45.36486328 -14.47314453 44.36279297 C-14.3933688 40.43516801 -14.21770617 36.63555283 -13.63720703 32.74755859 C-13.18068185 29.41168955 -13.03152597 26.25439636 -12.96533203 22.89208984 C-12.92956055 21.19342773 -12.92956055 21.19342773 -12.89306641 19.46044922 C-12.84988684 17.09865802 -12.81875228 14.73661764 -12.79931641 12.37451172 C-12.77160156 11.2459375 -12.74388672 10.11736328 -12.71533203 8.95458984 C-12.70074951 7.93083252 -12.68616699 6.9070752 -12.67114258 5.85229492 C-12.00649607 2.42925824 -10.84757937 1.25843419 -8.14111328 -0.87744141 C-4.6603008 -2.03771223 -3.25995004 -1.5069014 0 0 Z " fill="#8EBAC4" transform="translate(18.14111328125,22.87744140625)"/>
<path d="M0 0 C11.47588724 6.28441444 15.5332734 21.31072654 19 33 C20.39718692 37.88002969 21.71791271 42.7760465 23 47.6875 C23.32734131 48.90550293 23.65468262 50.12350586 23.99194336 51.37841797 C24.28335205 52.53615723 24.57476074 53.69389648 24.875 54.88671875 C25.27332031 56.43685669 25.27332031 56.43685669 25.6796875 58.01831055 C26.05888627 61.54815397 25.37160932 63.7545477 24 67 C23 68 23 68 19.1875 68.375 C16.05222892 68.30221692 15.24185636 68.18956309 12.6875 66.1875 C10.26516824 61.61198445 9.2126927 57.0326747 8 52 C2.72 51.34 -2.56 50.68 -8 50 C-8.0825 52.041875 -8.165 54.08375 -8.25 56.1875 C-8.4629426 61.45782934 -9.18996557 64.24558651 -13 68 C-16.50783959 68.65771992 -18.17299292 68.55233867 -21.15234375 66.5625 C-23.95639985 62.67357653 -23.63715423 59.12412659 -23.5625 54.4375 C-23.55444336 53.48456055 -23.54638672 52.53162109 -23.53808594 51.54980469 C-23.32306707 43.49048319 -22.19931925 35.67239934 -20.75 27.75 C-20.54576416 26.63294678 -20.34152832 25.51589355 -20.13110352 24.36499023 C-16.83377094 7.7663002 -16.83377094 7.7663002 -11.375 2.4375 C-7.27287892 -0.04536276 -4.8789041 -0.55987424 0 0 Z M-3 21 C-5.17935819 25.54032956 -6.59873581 28.85087206 -6 34 C-4.23863645 36.18331689 -4.23863645 36.18331689 -2.0546875 36.1953125 C0.97265625 36.09765625 0.97265625 36.09765625 4 36 C3.5188509 30.22621075 1.81532819 26.04140164 -1 21 C-1.66 21 -2.32 21 -3 21 Z " fill="#8EBAC4" transform="translate(305,18)"/>
<path d="M0 0 C7.71319033 4.6279142 11.82886245 13.52092049 14.25 21.87109375 C16.72760529 32.62458893 16.84209648 43.91404861 11.30859375 53.72265625 C7.51399937 59.25428566 2.91458172 63.62958366 -3.8203125 64.9765625 C-10.53215824 65.37632761 -15.99943199 63.38567835 -21.4375 59.5 C-31.36776413 49.50580713 -34.29784148 36.15549962 -34.4375 22.5 C-33.74886516 15.15456169 -31.14818807 7.59075918 -25.5 2.625 C-18.13229814 -2.48728292 -8.38053376 -3.65637187 0 0 Z M-16.8125 15.3125 C-20.41533098 20.16246478 -19.86119205 25.71962995 -19.4375 31.5 C-18.25641221 37.57912834 -16.31048885 42.65876393 -12.4375 47.5 C-9.63083909 49.78441618 -9.63083909 49.78441618 -6.5 49.4375 C-2.58712289 48.23968048 -1.62195167 46.9274093 0.5625 43.5 C1.95358604 34.64205507 0.96608396 25.39655024 -3.4375 17.5 C-6.06573204 14.39633574 -6.81397709 13.5890747 -10.9375 13 C-14.4620001 13.21293283 -14.4620001 13.21293283 -16.8125 15.3125 Z " fill="#8EBAC3" transform="translate(163.4375,22.5)"/>
<path d="M0 0 C8.22403846 4.93442308 12.43246721 14.76237703 14.8125 23.6875 C16.97222271 34.93769196 16.49111318 46.15587838 9.984375 55.8515625 C5.93844567 60.8634119 1.98494386 63.77256998 -4.52734375 64.84375 C-10.99494736 65.29841458 -16.18572579 63.19503024 -21.4375 59.5 C-31.43711053 49.45756459 -33.88058315 36.95926384 -33.87353516 23.36132812 C-33.71219807 15.49028484 -32.36832322 9.78068707 -26.9453125 3.875 C-19.83230934 -2.6114692 -8.77934669 -3.83037134 0 0 Z M-16.8125 15.3125 C-20.41533098 20.16246478 -19.86119205 25.71962995 -19.4375 31.5 C-18.25641221 37.57912834 -16.31048885 42.65876393 -12.4375 47.5 C-9.63083909 49.78441618 -9.63083909 49.78441618 -6.5 49.4375 C-2.58712289 48.23968048 -1.62195167 46.9274093 0.5625 43.5 C1.95358604 34.64205507 0.96608396 25.39655024 -3.4375 17.5 C-6.06573204 14.39633574 -6.81397709 13.5890747 -10.9375 13 C-14.4620001 13.21293283 -14.4620001 13.21293283 -16.8125 15.3125 Z " fill="#8EBAC3" transform="translate(105.4375,22.5)"/>
<path d="M0 0 C9.55715734 0.76457259 14.7259342 6.35085576 21.375 12.6875 C22.50772339 13.76596191 22.50772339 13.76596191 23.66333008 14.86621094 C34.50190775 25.25528398 44.65652942 35.29277235 45.15625 51.2421875 C44.86704643 56.34663049 43.94373709 59.95861105 40.3671875 63.71484375 C34.64184277 68.45505832 27.96344074 71.14155145 20.5 70.875 C18 70 18 70 16 67 C15.54296875 64.0703125 15.54296875 64.0703125 16 61 C18.30078125 58.8046875 18.30078125 58.8046875 21.3125 56.875 C27.36910611 53.09308287 27.36910611 53.09308287 30.50390625 46.95703125 C30.68769762 40.23026704 28.43847101 35.98157505 24 31 C20.29378468 27.67718627 16.45226026 25.19258491 12 23 C11.97511283 27.69563418 11.95705204 32.39122919 11.94506836 37.08691406 C11.94006769 38.68132192 11.93326499 40.27572525 11.92456055 41.87011719 C11.9123067 44.17383954 11.9067289 46.47750078 11.90234375 48.78125 C11.89718246 49.48366821 11.89202118 50.18608643 11.88670349 50.90979004 C11.88630933 54.45889343 12.08029098 57.84305428 12.59594727 61.35742188 C13 65 13 65 11.5625 67.5 C10 69 10 69 6.75 69 C3 68 3 68 1.71484375 66.50390625 C-5.59202706 52.69586521 -4.75142781 32.75890679 -1 18 C-0.54625 16.9275 -0.0925 15.855 0.375 14.75 C1.34669583 10.47453837 -0.78493164 7.60635097 -3 4 C-2.01 2.68 -1.02 1.36 0 0 Z " fill="#8FBAC3" transform="translate(193,16)"/>
<path d="M0 0 C2.08264774 3.12397161 2.36604942 4.28992128 1.74609375 7.91015625 C0.43853226 11.5726976 -1.99458079 14.48238042 -4.28125 17.59375 C-11.30798521 27.4311793 -10.11360336 37.0702978 -8.42578125 48.42578125 C-7.88438044 52.97056789 -8.03181468 56.53145236 -9 61 C-11.02463946 63.53369166 -11.61911706 63.95137665 -14.9375 64.375 C-18.39073986 63.9521543 -19.52712109 63.38817363 -22 61 C-22.72607422 58.55493164 -22.72607422 58.55493164 -23.0546875 55.66015625 C-23.19108643 54.60256104 -23.32748535 53.54496582 -23.46801758 52.45532227 C-23.66947388 50.77587524 -23.66947388 50.77587524 -23.875 49.0625 C-25.20136642 39.6036777 -26.57417018 32.01077705 -32 24 C-32.6290625 23.06929687 -33.258125 22.13859375 -33.90625 21.1796875 C-35.10561866 19.4543662 -36.32793997 17.74455752 -37.58203125 16.05859375 C-40.28006193 12.14161808 -40.33181017 8.6453424 -40 4 C-38.9375 2.0625 -38.9375 2.0625 -37 1 C-33.625 0.5 -33.625 0.5 -30 1 C-25.80900213 4.2929269 -22.99448707 8.63660455 -20 13 C-18.06123191 10.59592756 -16.14046341 8.19195579 -14.31640625 5.69921875 C-13.71699219 4.89097656 -13.11757813 4.08273438 -12.5 3.25 C-11.9328125 2.47140625 -11.365625 1.6928125 -10.78125 0.890625 C-7.27007077 -2.83615296 -4.31570263 -2.27142243 0 0 Z " fill="#8EBAC3" transform="translate(431,21)"/>
<path d="M0 0 C3.06375564 1.88538808 4.06117727 3.16785022 5.4375 6.5 C6.21705587 12.84781211 4.58866255 17.71026157 2.41015625 23.66796875 C0.78989991 28.38558259 0.30240027 32.74083633 0.19140625 37.71875 C0.15853516 38.89824219 0.12566406 40.07773437 0.09179688 41.29296875 C0.03060128 43.76422933 -0.02669082 46.23558966 -0.08007812 48.70703125 C-0.11423828 49.88652344 -0.14839844 51.06601563 -0.18359375 52.28125 C-0.2086499 53.35439453 -0.23370605 54.42753906 -0.25952148 55.53320312 C-0.56902354 58.56387914 -1.20481044 60.78156784 -2.5625 63.5 C-4.3125 64.5 -4.3125 64.5 -6.5625 64.5 C-10.28234079 63.20944299 -12.13839968 62.09374045 -14.4375 58.875 C-18.61411168 46.34516497 -15.94771085 20.00389112 -10.46484375 8.12109375 C-5.12881339 -1.00074408 -5.12881339 -1.00074408 0 0 Z " fill="#8EB9C2" transform="translate(267.5625,21.5)"/>
<path d="M0 0 C2.49317828 1.420785 4.49198648 3.0134753 6.375 5.1875 C6.375 5.8475 6.375 6.5075 6.375 7.1875 C5.385 6.8575 4.395 6.5275 3.375 6.1875 C3.045 5.5275 2.715 4.8675 2.375 4.1875 C0.73136866 3.46590576 -0.93550386 2.79398579 -2.625 2.1875 C-2.625 1.5275 -2.625 0.8675 -2.625 0.1875 C-5.02249384 0.27495575 -7.41648221 0.38187075 -9.8125 0.5 C-10.48603516 0.52255859 -11.15957031 0.54511719 -11.85351562 0.56835938 C-16.23485323 0.80345554 -19.06891376 1.61192686 -22.625 4.1875 C-23.615 3.5275 -24.605 2.8675 -25.625 2.1875 C-17.79423096 -2.72592371 -8.59972834 -4.10946428 0 0 Z " fill="#92B4B6" transform="translate(163.625,22.8125)"/>
<path d="M0 0 C12.00832302 6.90597233 12.00832302 6.90597233 16 11 C16.875 14.3125 16.875 14.3125 17 17 C15.375 18.5625 15.375 18.5625 13 20 C9.75 19.6875 9.75 19.6875 7 19 C7 18.67 7 18.34 7 18 C10.96 17.505 10.96 17.505 15 17 C15 15.35 15 13.7 15 12 C14.071875 11.8453125 14.071875 11.8453125 13.125 11.6875 C11 11 11 11 9 8 C7.824375 7.814375 7.824375 7.814375 6.625 7.625 C3.0290787 6.76882826 1.989524 5.02112904 0 2 C0 1.34 0 0.68 0 0 Z " fill="#91B1B5" transform="translate(377,67)"/>
<path d="M0 0 C1.6026782 -0.10824843 3.20745748 -0.18570645 4.8125 -0.25 C5.70582031 -0.29640625 6.59914063 -0.3428125 7.51953125 -0.390625 C10 0 10 0 11.75390625 1.8671875 C14.75181977 6.99841253 16 12.05520905 16 18 C12.16607266 13.48949724 11.41702232 8.66808927 10 3 C6.37 2.67 2.74 2.34 -1 2 C-0.67 1.34 -0.34 0.68 0 0 Z " fill="#8EACAD" transform="translate(303,67)"/>
<path d="M0 0 C2 1 2 1 2.609375 2.8046875 C4.11001804 11.23830141 2.78508831 19.82236753 -2 27 C-2.66 26.67 -3.32 26.34 -4 26 C-3.525625 25.113125 -3.05125 24.22625 -2.5625 23.3125 C-0.25152142 18.41322541 0.12321644 14.25852445 0.0625 8.875 C0.05347656 7.84117188 0.04445313 6.80734375 0.03515625 5.7421875 C0.02355469 4.83726563 0.01195312 3.93234375 0 3 C0 2.01 0 1.02 0 0 Z " fill="#91B0B5" transform="translate(378,11)"/>
<path d="M0 0 C1.43719226 4.75041412 0.99599723 9.18341963 0 14 C-1.6875 17.125 -1.6875 17.125 -4 19 C-7.0625 19.5 -7.0625 19.5 -10 19 C-10.99 18.01 -11.98 17.02 -13 16 C-10.03 16.33 -7.06 16.66 -4 17 C-3.67 15.68 -3.34 14.36 -3 13 C-2.34 13 -1.68 13 -1 13 C-1.01160156 12.14535156 -1.02320313 11.29070312 -1.03515625 10.41015625 C-1.04417969 9.30542969 -1.05320312 8.20070313 -1.0625 7.0625 C-1.07410156 5.96035156 -1.08570313 4.85820313 -1.09765625 3.72265625 C-1 1 -1 1 0 0 Z " fill="#94B3B4" transform="translate(296,67)"/>
<path d="M0 0 C0.99 0.66 1.98 1.32 3 2 C2.505 3.03125 2.01 4.0625 1.5 5.125 C0.03307212 8.5293798 -0.35582304 11.26385811 0 15 C1.49743119 16.49743119 2.98824239 16.33202693 5.0625 16.5625 C6.361875 16.706875 7.66125 16.85125 9 17 C7 19 7 19 5.125 19.1171875 C4.42375 19.03726563 3.7225 18.95734375 3 18.875 C2.29875 18.81054688 1.5975 18.74609375 0.875 18.6796875 C-1 18 -1 18 -2.265625 16.328125 C-3.2098207 13.33482373 -3.04122637 10.99418771 -2.75 7.875 C-2.66234375 6.82054687 -2.5746875 5.76609375 -2.484375 4.6796875 C-2 2 -2 2 0 0 Z " fill="#91B1B6" transform="translate(300,37)"/>
<path d="M0 0 C6.75 0.75 6.75 0.75 9 3 C6.36 2.67 3.72 2.34 1 2 C1.66 3.32 2.32 4.64 3 6 C2.01 6.495 2.01 6.495 1 7 C1.66 7.33 2.32 7.66 3 8 C3 8.99 3 9.98 3 11 C0.18013459 9.96604935 -0.85795028 9.23469084 -2.4375 6.625 C-3 4 -3 4 -1.625 1.6875 C-0.820625 0.8521875 -0.820625 0.8521875 0 0 Z " fill="#8CB1B6" transform="translate(193,16)"/>
<path d="M0 0 C0.33 0 0.66 0 1 0 C1.01458252 0.78648926 1.02916504 1.57297852 1.04418945 2.38330078 C1.11889363 5.96434958 1.21548207 9.54448911 1.3125 13.125 C1.33505859 14.3625 1.35761719 15.6 1.38085938 16.875 C1.41630859 18.07382813 1.45175781 19.27265625 1.48828125 20.5078125 C1.51446533 21.60754395 1.54064941 22.70727539 1.56762695 23.84033203 C2.05456935 27.39877842 3.24077434 29.8911472 5 33 C1.125 31.25 1.125 31.25 0 29 C-0.08559118 26.82175039 -0.10713412 24.64084745 -0.09765625 22.4609375 C-0.09443359 21.15898438 -0.09121094 19.85703125 -0.08789062 18.515625 C-0.07953466 17.13541601 -0.07106971 15.75520768 -0.0625 14.375 C-0.05748501 12.98698074 -0.0529221 11.59895978 -0.04882812 10.2109375 C-0.03700976 6.80724868 -0.02053434 3.40364561 0 0 Z " fill="#90B1B7" transform="translate(44,54)"/>
<path d="M0 0 C1.5 1.375 1.5 1.375 3 3 C3 3.66 3 4.32 3 5 C5.83151973 5.41809201 5.83151973 5.41809201 9 5 C11.40406384 2.62157423 11.40406384 2.62157423 13 0 C12.25 5.75 12.25 5.75 10 8 C6.5625 7.9375 6.5625 7.9375 3 7 C1.07828158 4.58235424 0 3.11532786 0 0 Z " fill="#96AFB3" transform="translate(193,77)"/>
<path d="M0 0 C3.875 1.75 3.875 1.75 5 4 C5.66 4.309375 6.32 4.61875 7 4.9375 C9 6 9 6 10 9 C10.66 9.66 11.32 10.32 12 11 C9 11 9 11 7.24609375 9.609375 C6.64925781 8.99578125 6.05242187 8.3821875 5.4375 7.75 C4.83808594 7.14671875 4.23867188 6.5434375 3.62109375 5.921875 C2.02427887 4.02878362 1.00261455 2.25463571 0 0 Z " fill="#91B3B8" transform="translate(358,63)"/>
<path d="M0 0 C-4.75 4 -4.75 4 -7 4 C-7.495 4.495 -7.99 4.99 -8.5 5.5 C-8.995 5.995 -9.49 6.49 -10 7 C-10.66 7 -11.32 7 -12 7 C-10.95724749 3.7558811 -9.38759509 2.39805336 -6.5625 0.6875 C-3 -1 -3 -1 0 0 Z " fill="#91B2B8" transform="translate(361,6)"/>
<path d="M0 0 C0.66 0.33 1.32 0.66 2 1 C2.45496035 6.76283104 0.79099852 11.60568303 -1 17 C-1.33 17 -1.66 17 -2 17 C-1.03644647 5.47835991 -1.03644647 5.47835991 0 0 Z " fill="#95B2B5" transform="translate(340,52)"/>
<path d="M0 0 C1.60031344 3.20062687 0.03173691 5.72271806 -1 9 C-1.99 9 -2.98 9 -4 9 C-3.46930939 5.17902761 -2.50298434 2.93828597 0 0 Z " fill="#93B4B6" transform="translate(293,21)"/>
<path d="M0 0 C3.98671063 1.36687222 6.88494633 3.15195093 10 6 C10 6.66 10 7.32 10 8 C9.01 7.67 8.02 7.34 7 7 C6.67 6.34 6.34 5.68 6 5 C5.175 4.690625 4.35 4.38125 3.5 4.0625 C2.675 3.711875 1.85 3.36125 1 3 C0.67 2.01 0.34 1.02 0 0 Z " fill="#8BAFB0" transform="translate(160,22)"/>
<path d="M0 0 C0.66 0 1.32 0 2 0 C2.33730842 1.43657245 2.66969591 2.87430093 3 4.3125 C3.185625 5.11300781 3.37125 5.91351563 3.5625 6.73828125 C4 9 4 9 4 12 C0.46209597 8.30827405 0.40884117 4.90609405 0 0 Z " fill="#91B3B5" transform="translate(315,73)"/>
<path d="M0 0 C0.66 0 1.32 0 2 0 C2 4.29 2 8.58 2 13 C1.67 13 1.34 13 1 13 C1 10.36 1 7.72 1 5 C0.34 5 -0.32 5 -1 5 C-0.67 3.35 -0.34 1.7 0 0 Z " fill="#93B4BD" transform="translate(57,59)"/>
<path d="M0 0 C0.66 0.33 1.32 0.66 2 1 C1.505 1.86625 1.01 2.7325 0.5 3.625 C-1.0477761 7.10749623 -1.26802896 9.24759458 -1 13 C-3.46324069 9.30513897 -3.38991688 7.36706908 -3 3 C-1.5 1.0625 -1.5 1.0625 0 0 Z " fill="#96B0B2" transform="translate(394,22)"/>
<path d="M0 0 C0 3 0 3 -1 5 C-0.39421747 7.01927511 0.26919734 9.02253397 1 11 C0.01 10.67 -0.98 10.34 -2 10 C-3.39431504 7.21136993 -3.25660094 5.07921132 -3 2 C-2.01 1.34 -1.02 0.68 0 0 Z " fill="#97B4BB" transform="translate(212,75)"/>
<path d="M0 0 C0.66 0.99 1.32 1.98 2 3 C0.35 5.64 -1.3 8.28 -3 11 C-4.22376937 7.3286919 -3.61664584 6.40346492 -2 3 C-1.34 2.01 -0.68 1.02 0 0 Z " fill="#90B1B5" transform="translate(117,69)"/>
<path d="M0 0 C0.66 0.33 1.32 0.66 2 1 C1.814375 1.9075 1.62875 2.815 1.4375 3.75 C1.04265379 6.68314324 1.05308428 8.2644657 2 11 C-0.7972908 8.93243723 -1.02692273 7.85559629 -1.6875 4.3125 C-1.790625 3.219375 -1.89375 2.12625 -2 1 C-1.34 0.67 -0.68 0.34 0 0 Z " fill="#8EB4BA" transform="translate(75,58)"/>
<path d="M0 0 C1.32 0 2.64 0 4 0 C2.25 5.75 2.25 5.75 0 8 C-0.66 7.34 -1.32 6.68 -2 6 C-1.34 4.02 -0.68 2.04 0 0 Z " fill="#94BFCC" transform="translate(131,44)"/>
<path d="M0 0 C4.95 0.99 4.95 0.99 10 2 C7 4 7 4 4.4375 3.8125 C2 3 2 3 0 0 Z " fill="#92B2B4" transform="translate(5,81)"/>
<path d="M0 0 C1.65 0 3.3 0 5 0 C4.67 1.65 4.34 3.3 4 5 C2.68 4.67 1.36 4.34 0 4 C0 2.68 0 1.36 0 0 Z " fill="#95BFC9" transform="translate(400,25)"/>
<path d="M0 0 C0.66 0.33 1.32 0.66 2 1 C1.67 3.31 1.34 5.62 1 8 C0.01 7.01 -0.98 6.02 -2 5 C-1.34 3.35 -0.68 1.7 0 0 Z " fill="#93B4B8" transform="translate(364,46)"/>
<path d="M0 0 C0.66 1.98 1.32 3.96 2 6 C1.01 6 0.02 6 -1 6 C-1.33 5.01 -1.66 4.02 -2 3 C-2.99 3 -3.98 3 -5 3 C-2.25 0 -2.25 0 0 0 Z " fill="#89B3BD" transform="translate(46,45)"/>
<path d="M0 0 C2.375 0.25 2.375 0.25 5 1 C6.3125 3.0625 6.3125 3.0625 7 5 C5.68 4.67 4.36 4.34 3 4 C3 3.34 3 2.68 3 2 C2.01 2 1.02 2 0 2 C0 1.34 0 0.68 0 0 Z " fill="#8EB3B6" transform="translate(14,22)"/>
</svg>
